<svg xmlns="http://www.w3.org/2000/svg" viewBox="0 0 218.82 236.7"><defs><style>.cls-1{fill:#21335b;}.cls-2{fill:#152036;}.cls-3{fill:#162037;}.cls-4{fill:#20335c;}</style></defs><title>mål</title><g id="Layer_5" data-name="Layer 5"><path class="cls-1" d="M118.3,4.92V30.28l18-.17a3.46,3.46,0,0,1,2.56,1.54c.51,1.05-.27,1.94-.18,2.89.08.76.87,2.85,10.56,4.59,7.91,1.43,11.87,2.14,16,.17a16.46,16.46,0,0,0,6.3-5.44l4.08-21.45-22.13,1.87a8.67,8.67,0,0,1-4.93-2.38c-2-2.06-1.66-4.22-3.75-5.79a7.3,7.3,0,0,0-4.42-1.19C136.08,4.8,128.29,4.74,118.3,4.92Z" transform="translate(-5.79 -4.81)"/><rect class="cls-2" x="109.96" width="3.74" height="43.91"/></g><g id="Layer_3" data-name="Layer 3"><path class="cls-2" d="M5.79,175.53,45.11,99.62l71,141.89a131.16,131.16,0,0,1-71.44-23.08A129.45,129.45,0,0,1,5.79,175.53Z" transform="translate(-5.79 -4.81)"/></g><g id="Layer_4" data-name="Layer 4"><path class="cls-3" d="M224.61,187.52q-19.11-37.49-38.23-75l-68.08,129A133,133,0,0,0,187,222.33,131.23,131.23,0,0,0,224.61,187.52Z" transform="translate(-5.79 -4.81)"/></g><g id="Layer_2" data-name="Layer 2"><path class="cls-4" d="M42.72,217.07,118,41.4q38,88.21,75.92,176.42a130.72,130.72,0,0,1-151.16-.75Z" transform="translate(-5.79 -4.81)"/></g></svg>