<svg id="Layer_1" data-name="Layer 1" xmlns="http://www.w3.org/2000/svg" viewBox="0 0 164.33 145.58"><defs><style>.cls-1{fill:#152036;}.cls-2{fill:none;stroke:#21335b;stroke-miterlimit:10;stroke-width:5px;}</style></defs><title>values</title><path class="cls-1" d="M31.69,11.49,9.37,49.12,86.07,149,165.81,51.8,144.35,11.34Z" transform="translate(-6.34 -8.21)"/><path class="cls-2" d="M87.88,149.78,167.64,50l-23-39.26H33.17q-11.91,20-23.8,40.09Z" transform="translate(-6.34 -8.21)"/><path class="cls-2" d="M167.43,49.61l-157.86,1" transform="translate(-6.34 -8.21)"/><path class="cls-2" d="M33.17,10.71c9,12.61,16,28.57,25,41.17,9.19,31.51,20.07,60.75,29.26,92.26,9.74-31.64,19.72-61,29.46-92.66,9-12.33,18.71-28.43,27.76-40.77" transform="translate(-6.34 -8.21)"/><path class="cls-2" d="M61.15,50.38c9.39-11.82,18.79-25.65,28.19-37.47,9.53,11.57,19.07,25.15,28.6,36.72" transform="translate(-6.34 -8.21)"/></svg>